<svg xmlns="http://www.w3.org/2000/svg" xmlns:xlink="http://www.w3.org/1999/xlink" width="24" height="24" viewBox="0 0 24 24"><defs><style>.a{fill:none;}.b{clip-path:url(#a);}.c{fill:#00152c;fill-rule:evenodd;}</style><clipPath id="a"><rect class="a" width="24" height="24"/></clipPath></defs><g class="b"><rect class="a" width="24" height="24"/><path class="c" d="M205.779,3297.529s-2.826-3.3-2.826-5.431v-5.359a7.072,7.072,0,0,0-14.129,0v5.318c0,2.144-2.826,5.471-2.826,5.471h6.432a3.2,3.2,0,0,0-.074.674,3.536,3.536,0,0,0,7.064,0,3.194,3.194,0,0,0-.074-.674Zm-15.542-10.79a5.658,5.658,0,0,1,11.3,0v1.349h-11.3Zm0,2.7h11.3v1.349h-11.3Zm5.652,10.789a2.073,2.073,0,0,1-2.119-2.023,1.928,1.928,0,0,1,.123-.674h3.992a1.928,1.928,0,0,1,.123.674A2.073,2.073,0,0,1,195.889,3300.226Zm-7.064-4.046a8.226,8.226,0,0,0,1.41-4.046h11.308a8.032,8.032,0,0,0,1.411,4.046Z" transform="translate(-183.889 -3278.785)"/></g></svg>