<svg xmlns="http://www.w3.org/2000/svg" width="11.999" height="11.999" viewBox="0 0 11.999 11.999"><defs><style>.a{fill:#b2b8bf;}</style></defs><path class="a" d="M6,1.5A5.854,5.854,0,0,0,0,7.184a5.443,5.443,0,0,0,.953,3.074,5.075,5.075,0,0,1-.895,2.882.219.219,0,0,0-.038.243A.2.2,0,0,0,.2,13.5l.028,0a10.294,10.294,0,0,0,3.323-1.124A6.225,6.225,0,0,0,6,12.867a5.854,5.854,0,0,0,6-5.684A5.854,5.854,0,0,0,6,1.5ZM3.2,8.026a.843.843,0,0,1,0-1.684.843.843,0,0,1,0,1.684Zm2.8,0a.843.843,0,1,1,.8-.842A.823.823,0,0,1,6,8.026Zm2.8,0a.843.843,0,1,1,.8-.842A.823.823,0,0,1,8.8,8.026Z" transform="translate(0 -1.5)"/></svg>