<svg xmlns="http://www.w3.org/2000/svg" width="16" height="16.004" viewBox="0 0 16 16.004"><defs><style>.a{fill:#00152c;}</style></defs><g transform="translate(0)"><path class="a" d="M18.275,45.333H16.6a.552.552,0,1,0,0,1.1h1.116V58.762H3.949V46.437H5.438a.552.552,0,1,0,0-1.1H3.391a.557.557,0,0,0-.558.552V59.313a.557.557,0,0,0,.558.552H18.275a.557.557,0,0,0,.558-.552V45.885A.557.557,0,0,0,18.275,45.333Z" transform="translate(-2.833 -43.861)"/><path class="a" d="M206.115,45.333h-1.564a.552.552,0,1,0,0,1.1h1.564a.552.552,0,1,0,0-1.1Z" transform="translate(-197.38 -43.861)"/><path class="a" d="M89.673,351.333H88.385a.553.553,0,0,0-.552.552v.92a.553.553,0,0,0,.552.552h1.288a.553.553,0,0,0,.552-.552v-.92A.553.553,0,0,0,89.673,351.333Z" transform="translate(-85.037 -339.928)"/><path class="a" d="M208.765,351.333h-1.38a.553.553,0,0,0-.552.552v.92a.554.554,0,0,0,.552.552h1.38a.554.554,0,0,0,.552-.552v-.92A.553.553,0,0,0,208.765,351.333Z" transform="translate(-200.121 -339.928)"/><path class="a" d="M90.224,258.385a.554.554,0,0,0-.552-.552H88.385a.554.554,0,0,0-.552.552v.92a.553.553,0,0,0,.552.552h1.288a.553.553,0,0,0,.552-.552Z" transform="translate(-85.037 -249.463)"/><path class="a" d="M209.316,258.385a.554.554,0,0,0-.552-.552h-1.38a.554.554,0,0,0-.552.552v.92a.553.553,0,0,0,.552.552h1.38a.553.553,0,0,0,.552-.552Z" transform="translate(-200.121 -249.463)"/><path class="a" d="M330.506,257.833h-1.288a.554.554,0,0,0-.552.552v.92a.553.553,0,0,0,.552.552h1.288a.553.553,0,0,0,.552-.552v-.92A.553.553,0,0,0,330.506,257.833Z" transform="translate(-317.947 -249.463)"/><path class="a" d="M87.833,162.052v.92a.553.553,0,0,0,.552.552h1.288a.553.553,0,0,0,.552-.552v-.92a.553.553,0,0,0-.552-.552H88.385A.553.553,0,0,0,87.833,162.052Z" transform="translate(-85.037 -156.257)"/><path class="a" d="M209.316,162.052a.553.553,0,0,0-.552-.552h-1.38a.554.554,0,0,0-.552.552v.92a.553.553,0,0,0,.552.552h1.38a.553.553,0,0,0,.552-.552Z" transform="translate(-200.121 -156.257)"/><path class="a" d="M331.057,162.052a.553.553,0,0,0-.552-.552h-1.288a.554.554,0,0,0-.552.552v.92a.553.553,0,0,0,.552.552h1.288a.553.553,0,0,0,.552-.552Z" transform="translate(-317.947 -156.257)"/><path class="a" d="M122.937,3.679a.553.553,0,0,0,.552-.552V.552A.553.553,0,0,0,122.937,0h-.552a.553.553,0,0,0-.552.552V3.127a.553.553,0,0,0,.552.552Z" transform="translate(-117.921)"/><path class="a" d="M318.437,0h-.552a.553.553,0,0,0-.552.552V3.127a.553.553,0,0,0,.552.552h.552a.553.553,0,0,0,.552-.552V.552A.553.553,0,0,0,318.437,0Z" transform="translate(-306.994)"/></g></svg>